<svg width="205" height="84" viewBox="0 0 205 84" fill="none" xmlns="http://www.w3.org/2000/svg">
<path d="M25.9853 28.9222C25.9853 33.7426 21.3079 37.0358 14.0793 37.0358C6.80341 37.0835 0 33.5517 0 33.5517L2.22056 29.1131C2.22056 29.1131 8.97672 32.1676 13.6068 32.1676C18.2369 32.1676 21.0244 31.0699 21.0244 28.8745C21.0244 26.6313 19.0401 25.4381 12.1422 25.4381C5.2443 25.4381 1.7481 23.1472 1.7481 18.1358C1.7481 12.1222 6.85066 9.16309 14.0793 9.16309C20.4102 9.16309 25.1821 11.6449 25.1821 11.6449L23.3395 16.179C23.3395 16.179 18.1897 13.6972 13.6068 13.6972C9.02397 13.6972 6.75617 15.6063 6.75617 17.3245C6.75617 19.0426 7.5121 20.5222 15.4967 20.5222C22.4891 20.5222 25.9853 24.1017 25.9853 28.9222Z" fill="black"/>
<path d="M51.3091 24.8659C51.3091 20.8091 51.3091 14.4614 45.8758 14.4614C42.0017 14.4614 38.3637 17.4205 36.2849 20.5227V36.5591H30.2847V0H36.2849V14.9864C38.5999 12.0273 42.9466 9.16364 47.2459 9.16364C53.6241 9.16364 57.2621 13.1727 57.2621 24.8659V33.6955L54.1439 37.2273L51.2619 33.6477L51.3091 24.8659Z" fill="black"/>
<path d="M78.2393 60.6139V72.307H72.2863V60.6139C72.2863 56.557 72.2863 50.1616 66.853 50.1616C62.9789 50.1616 59.2937 53.1207 57.2149 56.2707V72.307H51.2619L50.9312 38.8979L54.3329 43.4798L57.2621 39.0889L57.2149 50.6866C59.5772 47.7275 63.9238 44.8639 68.2232 44.8639C74.6014 44.8639 78.2393 48.9207 78.2393 60.6139Z" fill="black"/>
<path d="M88.1607 21.4771V36.5589H82.2078V33.743C79.562 35.5089 75.4516 37.0362 71.3885 37.0362C63.8764 37.0362 61.1833 33.0271 61.1833 28.9703C61.1833 24.9135 64.1598 20.9044 71.3885 20.9044C75.4516 20.9044 79.5147 22.4316 82.2078 24.2453V21.4771C82.2078 16.3703 81.4518 14.0316 75.2154 14.0316C68.9789 14.0316 64.2071 17.1816 64.2071 17.1816L61.4668 13.1248C61.4668 13.1248 67.6088 9.11572 74.7902 9.11572C85.2315 9.11572 88.1607 14.0316 88.1607 21.4771ZM82.2078 28.493C79.8927 26.6794 76.491 24.9612 72.9003 24.9612C68.7427 24.9612 67.1836 26.8225 67.1836 29.018C67.1836 31.2135 69.6876 33.0271 72.9003 33.0271C76.491 33.0271 79.8927 31.3566 82.2078 29.543V28.493Z" fill="black"/>
<path d="M116.981 12.9339L113.957 17.9453C113.957 17.9453 111.784 14.7953 107.343 14.7953C104.508 14.7953 101.342 16.7998 99.2635 19.1862V36.5589H93.3105V9.64072H99.2163V14.3657C101.39 11.7407 104.602 9.11572 108.146 9.11572C113.674 9.16345 116.981 12.9339 116.981 12.9339Z" fill="black"/>
<path d="M123.548 24.4839C124.115 28.2066 126.95 32.3112 132.619 32.3589C137.769 32.3589 140.793 27.8725 140.793 27.8725L145.47 30.6407C145.47 30.6407 141.265 37.0362 132.194 37.0362C121.469 37.0362 117.879 28.9225 117.879 23.0998C117.879 17.2771 121.469 9.11572 132.194 9.11572C142.919 9.11572 146.51 17.2294 146.51 23.0998C146.51 23.5294 146.462 24.0066 146.415 24.4839H123.548ZM140.415 19.8066C139.376 16.7044 136.871 13.8407 132.194 13.8407C127.517 13.8407 124.966 16.7521 123.973 19.8066H140.415Z" fill="black"/>
<path d="M47.3878 66.1974C45.309 69.8246 41.482 72.7837 35.0094 72.7837C24.2845 72.7837 20.6938 64.6701 20.6938 58.7996C20.6938 52.9769 24.2845 44.8633 35.0094 44.8633C41.482 44.8633 45.3562 47.8224 47.3878 51.4496L42.7104 54.2178C41.482 51.6406 39.0253 49.4928 35.0094 49.4928C28.6312 49.4928 26.5996 54.7906 26.5996 58.7519C26.5996 62.7133 28.6312 68.011 35.0094 68.011C39.0253 68.011 41.482 65.8633 42.7104 63.286L47.3878 66.1974Z" fill="black"/>
<path d="M109.138 57.225V72.3068H103.185V69.4909C100.539 71.2568 96.4289 72.7841 92.3658 72.7841C84.8537 72.7841 82.1606 68.775 82.1606 64.7182C82.1606 60.6614 85.1371 56.6523 92.3658 56.6523C96.4289 56.6523 100.492 58.1796 103.185 59.9932V57.225C103.185 52.1182 102.429 49.7796 96.1927 49.7796C89.9562 49.7796 85.1371 52.8818 85.1371 52.8818L82.3969 48.825C82.3969 48.825 88.5388 44.8159 95.7202 44.8159C106.209 44.8636 109.138 49.7796 109.138 57.225ZM103.138 64.2409C100.823 62.4273 97.4211 60.7091 93.8304 60.7091C89.6727 60.7091 88.1136 62.5705 88.1136 64.7659C88.1136 66.9614 90.6177 68.775 93.8304 68.775C97.4211 68.775 100.823 67.1046 103.138 65.2909V64.2409Z" fill="black"/>
<path d="M141.218 60.6133V72.3065H135.265V60.6133C135.265 56.5565 135.265 50.2087 129.832 50.2087C125.91 50.2087 122.273 53.1678 120.194 56.2701V72.3065H114.241V45.3883H120.194V50.686C122.556 47.7269 126.903 44.8633 131.202 44.8633C137.58 44.8633 141.218 48.9201 141.218 60.6133Z" fill="black"/>
<path d="M172.117 45.3883V72.3065C172.117 79.1792 168.432 83.9996 159.03 83.9996C149.581 83.9996 145.659 79.4655 145.659 79.4655L149.25 75.361C149.25 75.361 152.557 78.9406 158.888 78.9406C164.369 78.9406 166.164 75.7905 166.164 72.3065V66.961C163.802 69.9201 159.455 72.7837 155.156 72.7837C149.344 72.7837 145.139 65.8156 145.139 58.7996C145.139 51.8315 150.006 44.8633 157.045 44.8633C161.014 44.8633 164.274 47.2974 166.164 49.9701V45.3883H172.117ZM166.164 55.1724C164.557 52.3565 161.912 49.9224 158.416 49.9224C155.439 49.9224 151.092 52.9769 151.092 58.8474C151.092 64.7178 153.549 67.7724 156.526 67.7724C160.447 67.7724 164.085 64.7178 166.164 61.5201V55.1724Z" fill="black"/>
<path d="M182.038 60.2315C182.605 63.9542 185.44 68.0587 191.11 68.1065C196.259 68.1065 199.283 63.6201 199.283 63.6201L203.96 66.3883C203.96 66.3883 199.756 72.7837 190.684 72.7837C179.96 72.7837 176.369 64.6701 176.369 58.8474C176.369 53.0246 179.96 44.8633 190.684 44.8633C201.409 44.8633 205 52.9769 205 58.8474C205 59.2769 204.953 59.7542 204.905 60.2315H182.038ZM198.905 55.5542C197.913 52.4519 195.409 49.5883 190.684 49.5883C185.96 49.5883 183.456 52.4996 182.464 55.5542H198.905Z" fill="black"/>
<path d="M174.385 25.9638C174.385 25.9638 173.251 27.3956 172.259 28.2547C170.085 26.3456 168.243 25.0093 166.636 23.2911C170.227 22.1456 172.637 18.9479 172.684 15.4638C172.731 10.9775 168.81 7.39791 164.699 7.11155C161.534 6.92064 158.038 8.63882 156.667 11.7888C155.722 13.8888 155.722 16.657 157.045 18.8525C157.612 19.7593 158.274 20.3797 158.793 20.7615C155.439 21.9547 153.691 25.7729 153.974 28.732C154.4 32.7411 157.99 37.657 163.754 37.657C166.022 37.657 169.046 36.8934 172.4 34.4115C174.574 36.0343 174.574 36.0343 174.574 36.0343L178.259 35.7956L177.645 32.5025C177.645 32.5025 177.219 32.1684 175.471 30.7365C176.038 30.1638 177.503 28.1115 177.503 28.1115L177.597 24.9615L174.385 25.9638ZM164.368 11.3593C164.935 11.3593 167.203 11.407 168.29 13.2206C169.188 14.7479 168.621 16.4184 168.573 16.6093C167.676 19.1865 162.573 19.6161 162.573 19.6161C162.573 19.6161 160.258 17.6593 160.211 15.5593C160.211 15.2252 160.164 13.7456 161.203 12.6002C162.337 11.3593 163.849 11.3593 164.368 11.3593ZM163.565 32.8365C161.298 32.8365 159.266 31.5002 158.652 29.2093C157.99 26.6797 159.219 25.057 161.486 24.4843C163.376 26.632 165.739 28.5411 168.668 30.9275C166.447 32.407 164.746 32.8365 163.565 32.8365Z" fill="black"/>
</svg>
