<svg width="97" height="97" viewBox="0 0 97 97" fill="none" xmlns="http://www.w3.org/2000/svg">
<g clip-path="url(#clip0_159_702)">
<path d="M27.1243 37.9323C32.0357 37.9323 32.7054 37.2649 35.7192 37.7099C36.7238 36.7087 37.84 35.7076 39.0679 34.9289C40.0725 34.039 41.1887 33.3716 42.4166 32.7041C44.5374 31.5917 46.9931 30.7018 49.4488 30.3681C45.3188 27.3647 42.5282 26.586 35.0495 26.586C16.1853 26.586 14.3993 23.1376 14.3993 19.133C14.3993 15.1284 19.8688 10.6789 30.5846 10.6789C41.3003 10.6789 53.5788 16.3521 53.5788 16.3521L57.9321 5.7844C57.9321 5.7844 46.5466 0 31.7008 0C14.5109 0 2.4557 6.78555 2.4557 20.9128C2.4557 32.4816 10.8274 37.9323 27.1243 37.9323Z" fill="black"/>
<path d="M41.7468 56.0642C39.0679 56.7316 35.9425 57.1765 32.1473 57.1765C21.2083 57.1765 5.24626 50.0573 5.24626 50.0573L0 60.4025C0 60.4025 16.0736 68.6341 33.2635 68.6341C49.5604 68.6341 59.2716 58.8451 60.0529 46.6089C58.6018 48.1662 51.6812 52.6158 47.1047 54.9518C43.8677 56.5091 42.305 56.3979 41.7468 56.0642Z" fill="black"/>
<path d="M38.733 60.625C39.8493 60.4025 41.0771 60.18 42.1933 59.735C42.305 59.735 42.305 59.6238 42.4166 59.6238C42.8631 54.5068 45.6536 49.3899 52.0161 45.6078C60.1646 40.8245 67.6433 42.1594 73.2244 45.8302L79.4753 34.5951C70.992 29.8119 59.6064 28.477 46.435 36.1525C34.9379 42.938 30.2497 51.8371 29.3567 60.5137C32.4822 60.8474 35.6076 60.9587 38.733 60.625Z" fill="black"/>
<path d="M84.1634 63.406C84.7215 70.0803 82.2658 77.1996 74.1174 82.0941C61.0575 89.6583 50.6766 81.4267 45.9885 73.4175C45.3188 72.4163 44.7607 71.3039 44.2025 70.0803C42.4166 70.6365 40.4074 70.859 38.3982 71.0815C35.6076 71.3039 32.817 71.1927 30.0265 70.859C30.9195 74.4186 32.2589 77.7558 33.8216 80.5367C40.7422 92.2168 57.7089 104.231 79.5869 91.4381C92.7584 83.7627 97.1116 73.0838 97 63.406H84.1634Z" fill="black"/>
</g>
<defs>
<clipPath id="clip0_159_702">
<rect width="97" height="97" fill="white"/>
</clipPath>
</defs>
</svg>
